<svg xmlns="http://www.w3.org/2000/svg" xmlns:xlink="http://www.w3.org/1999/xlink" width="500" zoomAndPan="magnify" viewBox="0 0 375 374.999991" height="500" preserveAspectRatio="xMidYMid meet" version="1.0"><defs><clipPath id="bf6bbfee93"><path d="M 118 94.21875 L 258 94.21875 L 258 280.96875 L 118 280.96875 Z M 118 94.21875 " clip-rule="nonzero"/></clipPath></defs><g clip-path="url(#bf6bbfee93)"><path fill="#f6f7f7" d="M 238.722656 107.699219 C 238.925781 107.398438 238.980469 107.023438 238.878906 106.679688 C 238.773438 106.332031 238.523438 106.050781 238.1875 105.910156 C 236.886719 105.371094 234.25 104.28125 231.160156 103.234375 C 231.160156 103.234375 227.503906 95.753906 217.375 97.089844 C 216.320312 97.230469 215.292969 97.527344 214.324219 97.976562 C 211.246094 99.410156 204.933594 103.449219 207.613281 111.640625 C 207.613281 111.640625 210.589844 116.882812 205.285156 118.367188 C 205.285156 118.367188 203.148438 119.210938 200.949219 119.210938 C 200.949219 119.210938 197.457031 112.613281 194.289062 111.640625 C 194.289062 111.640625 195.777344 95.816406 186.78125 96.199219 C 186.367188 96.214844 185.949219 96.160156 185.554688 96.039062 C 183.804688 95.523438 178.820312 94.253906 174.425781 95.144531 C 174.425781 95.144531 167.894531 94.820312 167.765625 104.976562 C 167.765625 104.976562 163.363281 114.617188 162.070312 115.910156 C 162.070312 115.910156 151.589844 127.296875 151.136719 134.734375 C 151.136719 134.734375 142.921875 153.5625 145.574219 154.53125 C 145.574219 154.53125 147.191406 155.113281 148.164062 153.5625 C 148.164062 153.5625 145.144531 161.382812 145.183594 165.101562 C 145.1875 165.277344 145.316406 165.425781 145.492188 165.445312 C 145.664062 165.46875 145.828125 165.363281 145.878906 165.195312 C 146.210938 164.085938 146.878906 162.804688 148.164062 163.070312 C 148.164062 163.070312 150.621094 166.707031 150.179688 167.984375 C 150.035156 168.394531 150.109375 168.851562 150.378906 169.199219 C 151.800781 170.964844 155.75 174.878906 162.070312 173.617188 C 162.070312 173.617188 158.253906 179.890625 162.070312 189.722656 C 162.070312 189.722656 156.636719 198.84375 153.207031 210.167969 C 153.207031 210.167969 150.726562 215.746094 146.96875 220.90625 C 146.257812 221.878906 145.425781 222.761719 144.496094 223.527344 C 141.941406 225.621094 135.5625 232.003906 132.933594 245.097656 C 132.863281 245.445312 132.761719 245.789062 132.636719 246.121094 C 131.726562 248.46875 127.8125 258.359375 125.121094 261.738281 C 124.925781 261.980469 124.664062 262.160156 124.371094 262.257812 C 123.878906 262.421875 123.03125 262.925781 122.675781 264.441406 C 122.675781 264.441406 120.605469 272.207031 118.988281 274.597656 C 118.988281 274.597656 116.722656 277.1875 121.769531 278.867188 C 121.769531 278.867188 129.546875 280.460938 135.390625 279.773438 C 135.71875 279.730469 136.046875 279.734375 136.375 279.773438 C 137.988281 279.96875 143.066406 280.566406 145.359375 280.554688 C 145.515625 280.550781 145.671875 280.53125 145.824219 280.496094 C 147.121094 280.191406 152.996094 278.546875 150.222656 274.300781 C 150.011719 273.972656 149.621094 273.8125 149.242188 273.902344 C 148.613281 274.023438 147.292969 274.070312 144.589844 273.574219 L 193.734375 208.230469 C 193.734375 208.230469 194.753906 209.113281 195.414062 209.6875 C 195.746094 209.976562 196.222656 210.03125 196.613281 209.828125 C 198.675781 208.742188 205.011719 205.355469 206.195312 204.144531 C 206.195312 204.144531 215.152344 207.714844 215.152344 210.167969 C 215.152344 210.167969 210.660156 221.816406 213.277344 229.746094 C 213.277344 229.746094 216.304688 251.777344 215.152344 256.015625 C 215.152344 256.015625 213.035156 268.179688 215.152344 268.421875 C 215.152344 268.421875 219.632812 270.238281 226.167969 266.730469 C 232.679688 263.234375 233.96875 265.226562 237.027344 264.453125 C 237.039062 264.449219 237.050781 264.445312 237.0625 264.441406 C 237.066406 264.441406 247.476562 261.945312 247.414062 258.375 C 247.414062 258.375 248.078125 254.988281 240.878906 256.015625 C 240.878906 256.015625 230.828125 256.378906 227.320312 252.140625 C 227.320312 252.140625 224.320312 245.789062 224.757812 238.535156 C 224.769531 238.328125 224.777344 238.121094 224.777344 237.917969 C 224.777344 237.613281 224.777344 237.191406 224.777344 237.191406 L 250.238281 162.609375 C 250.238281 162.609375 255.492188 161.390625 255.667969 152.964844 C 255.667969 152.964844 258.273438 152.859375 257.230469 151.371094 C 257.21875 151.355469 257.207031 151.34375 257.191406 151.332031 C 256.917969 151.136719 254.183594 149.183594 253.304688 148.558594 C 253.09375 148.40625 252.824219 148.367188 252.578125 148.449219 C 252.105469 148.605469 251.472656 149.066406 251.769531 150.402344 C 251.804688 152.402344 251.515625 152.367188 250.238281 152.4375 C 249.382812 151.554688 246.785156 151.136719 243.273438 155.84375 C 243.273438 155.84375 222.441406 159.875 216.816406 158.5 C 216.414062 158.402344 216.152344 158.007812 216.21875 157.597656 C 216.292969 157.105469 216.132812 156.195312 215.152344 154.53125 C 215.152344 154.53125 213.359375 150.382812 213.757812 147.851562 C 213.871094 147.148438 213.785156 146.429688 213.507812 145.773438 C 213.367188 145.4375 213.222656 145.09375 213.109375 144.820312 C 212.964844 144.46875 212.9375 144.082031 213.035156 143.71875 C 213.519531 141.824219 214.972656 135.566406 214.019531 131.5625 C 214.019531 131.5625 220.710938 128.1875 221.554688 124.992188 C 221.554688 124.992188 229.242188 127.636719 228.28125 122.40625 C 228.28125 122.40625 229.304688 121.910156 229.242188 121.273438 C 229.242188 121.273438 229.964844 121.007812 229.792969 120.109375 C 229.617188 119.210938 229.441406 119.117188 229.964844 118.742188 C 229.964844 118.742188 230.28125 118.992188 230.710938 119.273438 C 230.933594 119.414062 231.21875 119.417969 231.445312 119.277344 C 231.667969 119.140625 231.792969 118.886719 231.769531 118.625 C 231.691406 117.449219 231.648438 116.214844 231.449219 115.371094 C 232.425781 112.652344 232.066406 110.523438 231.550781 108.992188 C 231.550781 108.992188 237.511719 109.523438 238.722656 107.699219 Z M 143.265625 273.003906 C 143.265625 273.003906 135.351562 270.066406 136.4375 261.003906 C 136.4375 261.003906 136.882812 254.6875 139.4375 252.324219 C 139.4375 252.324219 149.519531 242.050781 152.773438 234.070312 C 152.773438 234.070312 164.453125 224.5 166.304688 217.480469 L 173.003906 217.480469 C 173.003906 217.480469 183.304688 204.269531 185.640625 202.800781 C 185.640625 202.800781 191.511719 206.054688 191.511719 206.882812 Z M 247.617188 163.710938 C 247.617188 163.710938 245.164062 163.511719 244.171875 162.253906 C 244.171875 162.253906 242.78125 161.921875 239.730469 163.511719 C 239.730469 163.511719 215.015625 172.058594 211.039062 168.945312 C 211.039062 168.945312 205.472656 163.910156 204.34375 158.742188 C 204.34375 158.742188 202.886719 164.042969 201.761719 165.035156 C 201.761719 165.035156 202.621094 170.402344 201.761719 172.921875 C 201.761719 172.921875 202.753906 176.035156 204.34375 176.367188 C 204.34375 176.367188 208.785156 177.097656 213.886719 176.765625 C 213.886719 176.765625 214.246094 174.910156 215.585938 176.367188 C 215.585938 176.367188 219.964844 180.738281 216.925781 180.433594 C 216.925781 180.433594 218.265625 181.839844 216.925781 182.644531 C 216.925781 182.644531 212.9375 188.128906 211.570312 187.359375 L 228.316406 200.878906 C 228.316406 200.878906 231.914062 202.917969 228.316406 210.59375 C 228.316406 210.59375 227.355469 212.273438 228.316406 216.050781 C 228.316406 216.050781 228.496094 220.488281 227.355469 224.988281 Z M 247.617188 163.710938 " fill-opacity="1" fill-rule="evenodd"/><path fill="#f6f7f7" d="M 238.878906 107.800781 C 238.992188 107.628906 239.066406 107.433594 239.097656 107.234375 C 239.128906 107.03125 239.113281 106.824219 239.054688 106.625 C 238.996094 106.425781 238.894531 106.246094 238.757812 106.09375 C 238.621094 105.941406 238.453125 105.820312 238.261719 105.742188 C 238.261719 105.738281 238.261719 105.738281 238.261719 105.738281 C 237.496094 105.421875 236.269531 104.914062 234.765625 104.339844 C 233.722656 103.941406 232.542969 103.507812 231.292969 103.082031 C 231.027344 102.582031 229.265625 99.511719 225.328125 97.832031 C 223.289062 96.964844 220.660156 96.46875 217.347656 96.90625 C 216.8125 96.976562 216.28125 97.089844 215.765625 97.238281 C 215.246094 97.390625 214.738281 97.578125 214.246094 97.808594 C 212.425781 98.65625 209.496094 100.402344 207.902344 103.355469 C 206.757812 105.476562 206.300781 108.21875 207.4375 111.699219 C 207.441406 111.710938 207.445312 111.722656 207.453125 111.734375 C 207.453125 111.734375 208.636719 113.804688 208.140625 115.671875 C 207.867188 116.710938 207.058594 117.679688 205.234375 118.191406 C 205.230469 118.191406 205.222656 118.195312 205.21875 118.195312 C 205.21875 118.195312 204.332031 118.546875 203.117188 118.789062 C 202.492188 118.917969 201.78125 119.015625 201.0625 119.023438 C 200.773438 118.5 199.375 116 197.640625 114 C 196.652344 112.863281 195.550781 111.890625 194.484375 111.511719 C 194.5625 110.488281 194.933594 104.359375 192.980469 100.140625 C 191.847656 97.691406 189.941406 95.878906 186.773438 96.011719 C 186.578125 96.019531 186.378906 96.011719 186.183594 95.988281 C 185.988281 95.960938 185.796875 95.921875 185.609375 95.863281 C 185.605469 95.863281 185.605469 95.863281 185.605469 95.863281 C 184.589844 95.5625 182.492188 95.011719 180.054688 94.769531 C 178.261719 94.59375 176.285156 94.582031 174.410156 94.957031 C 174.140625 94.953125 171.632812 94.960938 169.726562 97.359375 C 168.574219 98.8125 167.632812 101.15625 167.578125 104.9375 C 167.382812 105.363281 165.449219 109.574219 163.828125 112.664062 C 163.046875 114.152344 162.34375 115.378906 161.941406 115.78125 C 161.9375 115.78125 161.9375 115.785156 161.933594 115.785156 C 161.933594 115.785156 157.273438 120.847656 154.027344 126.433594 C 152.390625 129.246094 151.117188 132.1875 150.957031 134.691406 C 150.722656 135.226562 147.433594 142.828125 145.792969 148.460938 C 145.183594 150.542969 144.800781 152.363281 144.871094 153.46875 C 144.914062 154.140625 145.136719 154.566406 145.511719 154.707031 C 145.511719 154.707031 146.28125 154.984375 147.105469 154.683594 C 147.289062 154.617188 147.476562 154.519531 147.65625 154.386719 C 147.207031 155.632812 146.386719 157.996094 145.777344 160.34375 C 145.320312 162.09375 144.984375 163.835938 144.996094 165.105469 C 144.996094 165.105469 144.996094 165.105469 144.996094 165.109375 C 145 165.242188 145.050781 165.363281 145.136719 165.457031 C 145.21875 165.550781 145.335938 165.613281 145.46875 165.628906 C 145.597656 165.648438 145.726562 165.617188 145.832031 165.546875 C 145.9375 165.480469 146.019531 165.375 146.058594 165.25 C 146.242188 164.625 146.535156 163.945312 146.996094 163.546875 C 147.277344 163.304688 147.625 163.171875 148.050781 163.238281 C 148.246094 163.53125 149.050781 164.773438 149.578125 165.976562 C 149.917969 166.738281 150.15625 167.480469 150.003906 167.925781 C 149.921875 168.160156 149.902344 168.40625 149.941406 168.644531 C 149.980469 168.882812 150.078125 169.113281 150.230469 169.3125 C 150.230469 169.3125 150.230469 169.3125 150.234375 169.3125 C 151.09375 170.386719 152.871094 172.230469 155.527344 173.273438 C 157.234375 173.941406 159.300781 174.28125 161.726562 173.867188 C 161.261719 174.796875 160.101562 177.542969 160.195312 181.648438 C 160.246094 183.9375 160.691406 186.652344 161.867188 189.707031 C 161.523438 190.292969 159.3125 194.121094 156.917969 199.632812 C 155.585938 202.691406 154.195312 206.269531 153.035156 210.101562 C 152.957031 210.273438 151.90625 212.605469 150.179688 215.589844 C 149.242188 217.214844 148.105469 219.03125 146.816406 220.796875 C 146.46875 221.277344 146.085938 221.734375 145.679688 222.167969 C 145.273438 222.597656 144.835938 223.003906 144.378906 223.382812 C 142.746094 224.722656 139.558594 227.804688 136.773438 233.25 C 135.179688 236.371094 133.714844 240.269531 132.75 245.0625 C 132.714844 245.230469 132.675781 245.398438 132.628906 245.5625 C 132.578125 245.730469 132.523438 245.894531 132.464844 246.054688 C 131.90625 247.492188 130.21875 251.761719 128.378906 255.628906 C 127.226562 258.054688 126.011719 260.324219 124.976562 261.625 C 124.890625 261.730469 124.789062 261.820312 124.675781 261.898438 C 124.566406 261.976562 124.445312 262.039062 124.3125 262.082031 C 123.984375 262.191406 123.5 262.445312 123.09375 263.015625 C 122.851562 263.351562 122.636719 263.796875 122.492188 264.398438 C 122.46875 264.496094 121.609375 267.695312 120.578125 270.589844 C 120.015625 272.164062 119.398438 273.652344 118.839844 274.488281 C 118.742188 274.601562 117.855469 275.726562 118.574219 276.988281 C 118.964844 277.679688 119.859375 278.425781 121.710938 279.042969 C 121.714844 279.046875 121.722656 279.046875 121.730469 279.050781 C 121.730469 279.050781 125.585938 279.839844 129.910156 280.066406 C 131.746094 280.164062 133.664062 280.160156 135.414062 279.957031 C 135.570312 279.9375 135.726562 279.925781 135.882812 279.925781 C 136.039062 279.929688 136.195312 279.9375 136.351562 279.957031 C 137.335938 280.078125 139.601562 280.34375 141.742188 280.53125 C 143.125 280.65625 144.457031 280.742188 145.359375 280.738281 C 145.359375 280.738281 145.363281 280.738281 145.363281 280.738281 C 145.449219 280.738281 145.53125 280.730469 145.617188 280.71875 C 145.699219 280.710938 145.78125 280.695312 145.863281 280.675781 C 146.742188 280.46875 149.644531 279.65625 150.722656 277.890625 C 151.296875 276.945312 151.378906 275.730469 150.378906 274.199219 C 150.25 274.003906 150.070312 273.855469 149.863281 273.773438 C 149.660156 273.691406 149.429688 273.667969 149.203125 273.71875 C 148.855469 273.785156 148.289062 273.828125 147.386719 273.765625 C 146.746094 273.71875 145.9375 273.621094 144.917969 273.445312 C 144.917969 273.445312 191.105469 212.035156 193.765625 208.5 C 193.765625 208.5 195.292969 209.828125 195.292969 209.828125 C 195.488281 209.996094 195.726562 210.097656 195.972656 210.125 C 196.21875 210.15625 196.472656 210.109375 196.699219 209.992188 C 198.039062 209.285156 201.171875 207.617188 203.539062 206.195312 C 204.753906 205.464844 205.765625 204.796875 206.238281 204.359375 C 206.921875 204.640625 210.601562 206.175781 212.980469 207.839844 C 213.699219 208.34375 214.296875 208.859375 214.652344 209.355469 C 214.839844 209.625 214.957031 209.882812 214.96875 210.132812 C 214.789062 210.609375 212.792969 215.996094 212.355469 221.820312 C 212.152344 224.53125 212.289062 227.335938 213.097656 229.789062 C 213.160156 230.253906 214.542969 240.425781 215.046875 248.128906 C 215.277344 251.65625 215.328125 254.664062 214.976562 255.96875 C 214.972656 255.972656 214.972656 255.976562 214.972656 255.984375 C 214.972656 255.984375 214.058594 261.230469 214.027344 264.914062 C 214.015625 266.261719 214.128906 267.402344 214.433594 268.023438 C 214.601562 268.363281 214.828125 268.5625 215.109375 268.605469 C 215.347656 268.695312 217.488281 269.453125 220.84375 268.84375 C 222.40625 268.558594 224.234375 267.976562 226.257812 266.890625 C 228.527344 265.671875 230.15625 265.125 231.445312 264.898438 C 233.84375 264.476562 235.085938 265.132812 237.074219 264.632812 C 237.074219 264.632812 237.109375 264.621094 237.109375 264.621094 C 237.117188 264.621094 237.125 264.617188 237.132812 264.613281 C 237.136719 264.613281 242.273438 263.378906 245.320312 261.40625 C 246.671875 260.535156 247.609375 259.503906 247.601562 258.390625 C 247.632812 258.195312 247.816406 256.613281 245.652344 255.933594 C 244.664062 255.625 243.15625 255.503906 240.859375 255.832031 C 240.628906 255.839844 236.238281 255.960938 232.324219 254.816406 C 230.40625 254.253906 228.601562 253.390625 227.476562 252.042969 C 227.355469 251.78125 226.167969 249.148438 225.445312 245.445312 C 225.046875 243.398438 224.792969 241.023438 224.941406 238.542969 C 224.941406 238.542969 224.960938 237.917969 224.960938 237.917969 C 224.960938 237.917969 224.960938 237.222656 224.960938 237.222656 C 224.960938 237.222656 250.382812 162.761719 250.382812 162.761719 C 250.820312 162.628906 252.605469 161.984375 254.023438 159.828125 C 254.96875 158.386719 255.757812 156.257812 255.847656 153.132812 C 256.214844 153.09375 257.054688 152.964844 257.433594 152.5625 C 257.703125 152.273438 257.796875 151.859375 257.382812 151.265625 C 257.382812 151.265625 257.296875 151.183594 257.296875 151.183594 C 257.296875 151.183594 253.410156 148.40625 253.410156 148.40625 C 253.28125 148.3125 253.136719 148.253906 252.984375 148.230469 C 252.828125 148.210938 252.671875 148.222656 252.519531 148.273438 C 252.179688 148.386719 251.769531 148.636719 251.59375 149.179688 C 251.492188 149.484375 251.46875 149.890625 251.585938 150.421875 C 251.59375 150.992188 251.578125 151.386719 251.515625 151.664062 C 251.476562 151.847656 251.417969 151.972656 251.320312 152.054688 C 251.121094 152.226562 250.796875 152.222656 250.308594 152.25 C 249.738281 151.714844 248.554688 151.359375 246.933594 152.179688 C 245.859375 152.722656 244.585938 153.785156 243.167969 155.675781 C 242.351562 155.832031 234.550781 157.308594 227.429688 158.105469 C 223.050781 158.59375 218.925781 158.824219 216.863281 158.320312 C 216.707031 158.28125 216.578125 158.1875 216.496094 158.0625 C 216.414062 157.9375 216.375 157.785156 216.402344 157.625 C 216.445312 157.328125 216.417969 156.890625 216.191406 156.246094 C 216.023438 155.773438 215.75 155.183594 215.320312 154.449219 C 215.253906 154.292969 214.484375 152.472656 214.101562 150.554688 C 213.914062 149.625 213.816406 148.671875 213.941406 147.878906 C 214 147.511719 214.007812 147.140625 213.960938 146.773438 C 213.917969 146.40625 213.824219 146.046875 213.679688 145.703125 C 213.679688 145.703125 213.28125 144.746094 213.28125 144.746094 C 213.214844 144.589844 213.175781 144.425781 213.164062 144.261719 C 213.152344 144.097656 213.167969 143.929688 213.210938 143.765625 C 213.210938 143.765625 213.214844 143.765625 213.214844 143.765625 C 213.527344 142.546875 214.234375 139.535156 214.457031 136.46875 C 214.574219 134.789062 214.546875 133.089844 214.230469 131.660156 C 214.816406 131.355469 217.289062 130.023438 219.242188 128.34375 C 220.371094 127.378906 221.324219 126.292969 221.675781 125.226562 C 222.417969 125.453125 225.226562 126.238281 226.988281 125.589844 C 228.054688 125.195312 228.777344 124.308594 228.484375 122.503906 C 228.652344 122.410156 228.957031 122.214844 229.167969 121.960938 C 229.308594 121.792969 229.410156 121.597656 229.425781 121.386719 C 229.5625 121.308594 229.777344 121.152344 229.902344 120.871094 C 229.992188 120.675781 230.039062 120.414062 229.972656 120.074219 C 229.886719 119.632812 229.796875 119.394531 229.804688 119.21875 C 229.804688 119.121094 229.859375 119.058594 229.96875 118.972656 C 229.96875 118.972656 230.609375 119.429688 230.609375 119.429688 C 230.609375 119.429688 230.613281 119.429688 230.613281 119.429688 C 230.753906 119.519531 230.914062 119.566406 231.074219 119.566406 C 231.238281 119.566406 231.398438 119.523438 231.539062 119.4375 C 231.683594 119.347656 231.792969 119.222656 231.867188 119.082031 C 231.9375 118.9375 231.96875 118.773438 231.953125 118.609375 C 231.910156 117.949219 231.878906 117.269531 231.820312 116.648438 C 231.78125 116.179688 231.722656 115.746094 231.640625 115.382812 C 232.054688 114.210938 232.226562 113.148438 232.246094 112.195312 C 232.269531 111.035156 232.070312 110.035156 231.8125 109.199219 C 232.511719 109.242188 234.40625 109.332031 236.074219 109.074219 C 237.308594 108.882812 238.417969 108.496094 238.878906 107.800781 Z M 257.078125 151.480469 C 257.347656 151.863281 257.339844 152.125 257.164062 152.308594 C 256.746094 152.75 255.660156 152.777344 255.660156 152.777344 C 255.5625 152.78125 255.484375 152.863281 255.484375 152.960938 C 255.429688 155.417969 254.945312 157.253906 254.28125 158.621094 C 252.722656 161.832031 250.195312 162.429688 250.195312 162.429688 C 250.132812 162.441406 250.082031 162.488281 250.0625 162.550781 L 224.601562 237.132812 C 224.59375 237.152344 224.59375 237.171875 224.59375 237.191406 L 224.589844 237.917969 L 224.570312 238.523438 C 224.417969 241.035156 224.679688 243.441406 225.082031 245.515625 C 225.851562 249.46875 227.152344 252.222656 227.152344 252.222656 C 227.160156 252.234375 227.167969 252.25 227.175781 252.261719 C 228.34375 253.667969 230.21875 254.585938 232.21875 255.171875 C 236.296875 256.367188 240.882812 256.199219 240.882812 256.199219 C 240.890625 256.199219 240.898438 256.199219 240.902344 256.199219 C 243.125 255.882812 244.585938 255.988281 245.542969 256.289062 C 247.492188 256.902344 247.230469 258.339844 247.230469 258.339844 C 247.230469 258.351562 247.230469 258.367188 247.230469 258.378906 C 247.238281 258.960938 246.941406 259.511719 246.453125 260.023438 C 245.867188 260.644531 245.007812 261.210938 244.046875 261.71875 C 241.023438 263.304688 236.996094 264.269531 236.996094 264.269531 L 237.019531 264.261719 L 236.980469 264.273438 C 235.003906 264.773438 233.769531 264.113281 231.382812 264.535156 C 230.066406 264.765625 228.402344 265.320312 226.082031 266.566406 C 224.097656 267.628906 222.308594 268.199219 220.777344 268.480469 C 217.339844 269.101562 215.222656 268.25 215.222656 268.25 C 215.207031 268.246094 215.191406 268.242188 215.175781 268.238281 C 214.914062 268.210938 214.761719 267.933594 214.640625 267.53125 C 214.453125 266.90625 214.390625 265.976562 214.398438 264.917969 C 214.425781 261.34375 215.292969 256.289062 215.335938 256.054688 C 215.691406 254.726562 215.652344 251.679688 215.417969 248.105469 C 214.902344 240.207031 213.460938 229.722656 213.460938 229.722656 C 213.460938 229.710938 213.457031 229.699219 213.453125 229.6875 C 212.65625 227.277344 212.527344 224.515625 212.726562 221.847656 C 213.179688 215.800781 215.328125 210.234375 215.328125 210.234375 C 215.335938 210.210938 215.339844 210.1875 215.339844 210.167969 C 215.339844 209.363281 214.453125 208.421875 213.191406 207.539062 C 210.53125 205.671875 206.265625 203.972656 206.265625 203.972656 C 206.195312 203.945312 206.113281 203.960938 206.0625 204.015625 C 205.652344 204.4375 204.609375 205.117188 203.347656 205.878906 C 200.988281 207.292969 197.863281 208.960938 196.527344 209.664062 C 196.367188 209.746094 196.1875 209.777344 196.015625 209.757812 C 195.839844 209.738281 195.675781 209.667969 195.535156 209.546875 L 193.855469 208.089844 C 193.816406 208.058594 193.765625 208.039062 193.714844 208.046875 C 193.664062 208.050781 193.617188 208.078125 193.585938 208.121094 L 144.441406 273.460938 C 144.402344 273.511719 144.394531 273.582031 144.414062 273.640625 C 144.4375 273.699219 144.492188 273.742188 144.554688 273.753906 C 145.730469 273.972656 146.648438 274.085938 147.359375 274.132812 C 148.316406 274.199219 148.910156 274.152344 149.277344 274.082031 C 149.277344 274.082031 149.28125 274.082031 149.285156 274.082031 C 149.433594 274.046875 149.589844 274.0625 149.726562 274.117188 C 149.863281 274.171875 149.980469 274.269531 150.066406 274.398438 C 150.066406 274.398438 150.066406 274.402344 150.066406 274.402344 C 150.960938 275.769531 150.917969 276.851562 150.40625 277.695312 C 149.382812 279.371094 146.613281 280.121094 145.78125 280.316406 C 145.710938 280.332031 145.640625 280.34375 145.570312 280.351562 C 145.5 280.363281 145.429688 280.367188 145.359375 280.367188 C 144.464844 280.371094 143.144531 280.285156 141.773438 280.164062 C 139.636719 279.976562 137.375 279.707031 136.394531 279.589844 C 136.226562 279.566406 136.054688 279.558594 135.882812 279.558594 C 135.710938 279.558594 135.539062 279.566406 135.371094 279.585938 C 133.640625 279.792969 131.742188 279.792969 129.929688 279.699219 C 125.765625 279.476562 122.042969 278.734375 121.816406 278.6875 C 120.101562 278.117188 119.257812 277.449219 118.894531 276.804688 C 118.265625 275.699219 119.125 274.71875 119.125 274.71875 C 119.132812 274.714844 119.136719 274.707031 119.140625 274.703125 C 119.714844 273.851562 120.347656 272.328125 120.925781 270.714844 C 121.980469 267.757812 122.851562 264.488281 122.851562 264.488281 C 122.851562 264.488281 122.855469 264.484375 122.855469 264.484375 C 122.980469 263.941406 123.175781 263.535156 123.394531 263.230469 C 123.742188 262.742188 124.148438 262.527344 124.433594 262.433594 C 124.59375 262.378906 124.75 262.300781 124.886719 262.203125 C 125.027344 262.105469 125.15625 261.992188 125.265625 261.855469 C 126.3125 260.539062 127.546875 258.246094 128.714844 255.789062 C 130.558594 251.910156 132.25 247.628906 132.808594 246.1875 C 132.875 246.015625 132.933594 245.84375 132.984375 245.667969 C 133.035156 245.492188 133.078125 245.3125 133.113281 245.132812 C 134.070312 240.378906 135.519531 236.515625 137.101562 233.417969 C 139.855469 228.039062 143 224.992188 144.613281 223.667969 C 145.085938 223.28125 145.53125 222.863281 145.949219 222.421875 C 146.367188 221.976562 146.757812 221.507812 147.117188 221.015625 C 148.414062 219.238281 149.558594 217.410156 150.5 215.777344 C 152.304688 212.652344 153.378906 210.242188 153.378906 210.242188 C 153.378906 210.234375 153.382812 210.226562 153.386719 210.21875 C 154.542969 206.398438 155.929688 202.832031 157.257812 199.777344 C 159.855469 193.804688 162.230469 189.816406 162.230469 189.816406 C 162.257812 189.769531 162.265625 189.710938 162.242188 189.65625 C 161.0625 186.613281 160.617188 183.914062 160.566406 181.640625 C 160.449219 176.648438 162.230469 173.710938 162.230469 173.710938 C 162.265625 173.648438 162.265625 173.570312 162.222656 173.507812 C 162.179688 173.449219 162.105469 173.417969 162.035156 173.433594 C 159.527344 173.933594 157.402344 173.609375 155.664062 172.929688 C 153.085938 171.917969 151.363281 170.125 150.523438 169.082031 C 150.410156 168.933594 150.335938 168.765625 150.308594 168.585938 C 150.277344 168.40625 150.292969 168.222656 150.355469 168.046875 C 150.355469 168.046875 150.355469 168.046875 150.355469 168.042969 C 150.492188 167.640625 150.378906 167.015625 150.128906 166.339844 C 149.554688 164.804688 148.316406 162.96875 148.316406 162.96875 C 148.289062 162.925781 148.246094 162.898438 148.199219 162.890625 C 147.609375 162.765625 147.132812 162.9375 146.753906 163.265625 C 146.242188 163.707031 145.90625 164.453125 145.703125 165.140625 C 145.703125 165.140625 145.703125 165.140625 145.703125 165.144531 C 145.691406 165.183594 145.664062 165.214844 145.632812 165.238281 C 145.597656 165.257812 145.558594 165.269531 145.515625 165.261719 C 145.472656 165.257812 145.4375 165.238281 145.410156 165.207031 C 145.386719 165.179688 145.371094 165.140625 145.367188 165.101562 C 145.355469 163.855469 145.6875 162.152344 146.132812 160.4375 C 147.015625 157.050781 148.335938 153.628906 148.335938 153.628906 C 148.371094 153.539062 148.332031 153.4375 148.246094 153.394531 C 148.160156 153.351562 148.054688 153.382812 148.003906 153.460938 C 147.703125 153.945312 147.335938 154.203125 146.980469 154.335938 C 146.296875 154.582031 145.664062 154.367188 145.636719 154.355469 C 145.371094 154.257812 145.269531 153.925781 145.238281 153.445312 C 145.171875 152.367188 145.554688 150.597656 146.148438 148.5625 C 147.847656 142.742188 151.308594 134.808594 151.308594 134.808594 C 151.316406 134.789062 151.320312 134.769531 151.324219 134.746094 C 151.472656 132.285156 152.738281 129.386719 154.347656 126.621094 C 157.53125 121.148438 162.074219 116.179688 162.203125 116.039062 C 162.617188 115.625 163.351562 114.367188 164.15625 112.839844 C 165.871094 109.570312 167.933594 105.054688 167.933594 105.054688 C 167.941406 105.03125 167.949219 105.003906 167.949219 104.980469 C 167.996094 101.289062 168.894531 99.003906 170.015625 97.589844 C 171.90625 95.210938 174.417969 95.328125 174.417969 95.328125 C 174.433594 95.332031 174.449219 95.328125 174.464844 95.324219 C 176.304688 94.953125 178.253906 94.964844 180.015625 95.136719 C 182.425781 95.375 184.496094 95.921875 185.5 96.214844 C 185.707031 96.28125 185.921875 96.328125 186.136719 96.355469 C 186.351562 96.382812 186.570312 96.390625 186.789062 96.382812 C 189.78125 96.257812 191.574219 97.980469 192.644531 100.296875 C 194.746094 104.835938 194.101562 111.625 194.101562 111.625 C 194.09375 111.710938 194.148438 111.792969 194.234375 111.816406 C 195.289062 112.140625 196.378906 113.113281 197.359375 114.242188 C 199.285156 116.457031 200.785156 119.296875 200.785156 119.296875 C 200.820312 119.355469 200.882812 119.394531 200.949219 119.394531 C 201.734375 119.394531 202.511719 119.289062 203.1875 119.152344 C 204.371094 118.914062 205.25 118.582031 205.34375 118.542969 C 207.335938 117.984375 208.199219 116.90625 208.5 115.765625 C 209 113.871094 207.898438 111.777344 207.785156 111.566406 C 206.691406 108.21875 207.125 105.574219 208.230469 103.53125 C 209.777344 100.660156 212.632812 98.96875 214.402344 98.144531 C 214.878906 97.921875 215.367188 97.738281 215.867188 97.59375 C 216.367188 97.449219 216.878906 97.339844 217.398438 97.273438 C 220.628906 96.847656 223.191406 97.328125 225.183594 98.175781 C 229.34375 99.945312 230.996094 103.316406 230.996094 103.316406 C 231.015625 103.359375 231.054688 103.394531 231.101562 103.410156 C 232.375 103.839844 233.574219 104.28125 234.632812 104.683594 C 236.132812 105.261719 237.355469 105.765625 238.117188 106.082031 C 238.257812 106.140625 238.382812 106.230469 238.480469 106.339844 C 238.582031 106.453125 238.65625 106.585938 238.699219 106.730469 C 238.742188 106.878906 238.753906 107.03125 238.730469 107.179688 C 238.710938 107.324219 238.65625 107.46875 238.570312 107.59375 C 238.152344 108.222656 237.136719 108.535156 236.019531 108.707031 C 233.96875 109.023438 231.566406 108.808594 231.566406 108.808594 C 231.503906 108.804688 231.445312 108.828125 231.40625 108.878906 C 231.367188 108.929688 231.355469 108.992188 231.375 109.050781 C 231.664062 109.90625 231.902344 110.953125 231.875 112.1875 C 231.855469 113.121094 231.6875 114.160156 231.273438 115.308594 C 231.261719 115.34375 231.261719 115.378906 231.269531 115.414062 C 231.355469 115.773438 231.410156 116.210938 231.453125 116.683594 C 231.507812 117.300781 231.542969 117.976562 231.585938 118.636719 C 231.585938 118.636719 231.585938 118.640625 231.585938 118.640625 C 231.59375 118.738281 231.574219 118.832031 231.535156 118.914062 C 231.492188 119 231.429688 119.070312 231.347656 119.121094 C 231.265625 119.171875 231.171875 119.195312 231.078125 119.195312 C 230.984375 119.195312 230.894531 119.171875 230.8125 119.121094 C 230.8125 119.121094 230.082031 118.597656 230.082031 118.597656 C 230.015625 118.546875 229.925781 118.546875 229.859375 118.59375 C 229.535156 118.824219 229.4375 118.988281 229.433594 119.207031 C 229.425781 119.398438 229.515625 119.660156 229.609375 120.144531 C 229.65625 120.386719 229.628906 120.578125 229.566406 120.71875 C 229.4375 121 229.179688 121.097656 229.179688 121.097656 C 229.101562 121.125 229.050781 121.207031 229.058594 121.289062 C 229.074219 121.449219 228.992188 121.597656 228.882812 121.722656 C 228.625 122.035156 228.199219 122.238281 228.199219 122.238281 C 228.125 122.273438 228.082031 122.355469 228.097656 122.4375 C 228.398438 124.078125 227.804688 124.894531 226.859375 125.242188 C 224.90625 125.960938 221.613281 124.816406 221.613281 124.816406 C 221.5625 124.800781 221.511719 124.804688 221.464844 124.828125 C 221.421875 124.851562 221.386719 124.894531 221.375 124.945312 C 221.09375 126.011719 220.132812 127.09375 219.003906 128.0625 C 216.800781 129.953125 213.933594 131.398438 213.933594 131.398438 C 213.859375 131.4375 213.820312 131.523438 213.839844 131.605469 C 214.179688 133.03125 214.207031 134.746094 214.085938 136.441406 C 213.867188 139.480469 213.164062 142.464844 212.855469 143.671875 C 212.800781 143.875 212.78125 144.082031 212.796875 144.285156 C 212.808594 144.492188 212.855469 144.695312 212.9375 144.890625 L 213.339844 145.84375 C 213.46875 146.15625 213.554688 146.484375 213.59375 146.816406 C 213.632812 147.152344 213.628906 147.488281 213.574219 147.824219 C 213.445312 148.652344 213.542969 149.652344 213.738281 150.628906 C 214.144531 152.667969 214.984375 154.605469 214.984375 154.605469 C 214.988281 154.613281 214.988281 154.617188 214.992188 154.625 C 215.414062 155.335938 215.679688 155.910156 215.839844 156.367188 C 216.039062 156.929688 216.074219 157.3125 216.035156 157.570312 C 215.996094 157.820312 216.054688 158.070312 216.1875 158.269531 C 216.320312 158.46875 216.523438 158.621094 216.773438 158.679688 C 218.863281 159.191406 223.039062 158.964844 227.472656 158.472656 C 235.011719 157.632812 243.308594 156.027344 243.308594 156.027344 C 243.351562 156.015625 243.394531 155.992188 243.421875 155.953125 C 244.8125 154.089844 246.054688 153.042969 247.097656 152.511719 C 248.570312 151.769531 249.628906 152.074219 250.105469 152.566406 C 250.140625 152.605469 250.195312 152.625 250.25 152.621094 C 250.894531 152.585938 251.304688 152.554688 251.5625 152.335938 C 251.855469 152.085938 251.976562 151.5625 251.953125 150.398438 C 251.953125 150.386719 251.953125 150.371094 251.949219 150.359375 C 251.847656 149.902344 251.859375 149.554688 251.945312 149.296875 C 252.078125 148.890625 252.386719 148.707031 252.636719 148.625 C 252.734375 148.59375 252.832031 148.585938 252.925781 148.597656 C 253.023438 148.613281 253.117188 148.648438 253.195312 148.707031 Z M 143.199219 273.175781 C 143.277344 273.203125 143.367188 273.179688 143.414062 273.109375 C 143.414062 273.109375 191.664062 206.992188 191.664062 206.992188 C 191.6875 206.960938 191.699219 206.925781 191.699219 206.882812 C 191.699219 206.761719 191.617188 206.585938 191.441406 206.390625 C 191.167969 206.089844 190.664062 205.699219 190.058594 205.28125 C 188.3125 204.070312 185.730469 202.636719 185.730469 202.636719 C 185.671875 202.605469 185.601562 202.609375 185.542969 202.644531 C 184.792969 203.113281 183.230469 204.78125 181.445312 206.835938 C 177.894531 210.9375 173.460938 216.597656 172.914062 217.292969 C 172.914062 217.292969 166.304688 217.292969 166.304688 217.292969 C 166.21875 217.292969 166.148438 217.351562 166.125 217.429688 C 165.511719 219.753906 163.8125 222.355469 161.824219 224.792969 C 157.828125 229.691406 152.65625 233.929688 152.65625 233.929688 C 152.632812 233.949219 152.613281 233.972656 152.601562 234.003906 C 151.582031 236.5 149.890625 239.226562 148.046875 241.789062 C 144.089844 247.296875 139.449219 252.046875 139.308594 252.191406 C 138.460938 252.976562 137.835938 254.183594 137.386719 255.457031 C 136.476562 258.027344 136.261719 260.871094 136.253906 260.988281 C 135.882812 264.082031 136.550781 266.476562 137.59375 268.285156 C 139.65625 271.863281 143.199219 273.175781 143.199219 273.175781 Z M 143.199219 272.777344 C 142.558594 272.507812 139.679688 271.160156 137.914062 268.101562 C 136.902344 266.347656 136.261719 264.027344 136.621094 261.027344 C 136.621094 261.023438 136.621094 261.019531 136.621094 261.015625 C 136.621094 261.015625 136.824219 258.160156 137.734375 255.582031 C 138.164062 254.363281 138.753906 253.207031 139.5625 252.460938 C 139.5625 252.457031 139.566406 252.457031 139.570312 252.453125 C 139.570312 252.453125 144.3125 247.621094 148.347656 242.007812 C 150.195312 239.433594 151.898438 236.695312 152.929688 234.183594 C 153.394531 233.796875 158.285156 229.714844 162.109375 225.027344 C 164.097656 222.59375 165.792969 219.992188 166.445312 217.664062 C 166.445312 217.664062 173.003906 217.664062 173.003906 217.664062 C 173.0625 217.664062 173.117188 217.636719 173.152344 217.59375 C 173.152344 217.59375 177.941406 211.449219 181.726562 207.078125 C 183.40625 205.140625 184.882812 203.546875 185.648438 203.015625 C 186.136719 203.289062 188.316406 204.523438 189.847656 205.582031 C 190.421875 205.980469 190.90625 206.355469 191.164062 206.640625 C 191.238281 206.71875 191.296875 206.785156 191.316406 206.839844 C 189.691406 209.066406 145.40625 269.757812 143.199219 272.777344 Z M 247.792969 163.769531 C 247.8125 163.714844 247.804688 163.65625 247.773438 163.609375 C 247.738281 163.5625 247.6875 163.53125 247.632812 163.527344 C 247.632812 163.527344 246.496094 163.433594 245.476562 162.976562 C 245.03125 162.773438 244.605469 162.507812 244.316406 162.136719 C 244.289062 162.105469 244.253906 162.082031 244.214844 162.074219 C 244.214844 162.074219 243.59375 161.917969 242.277344 162.277344 C 241.597656 162.460938 240.730469 162.785156 239.65625 163.339844 C 239.226562 163.488281 228.109375 167.308594 219.722656 168.828125 C 217.359375 169.257812 215.210938 169.503906 213.585938 169.429688 C 212.503906 169.378906 211.660156 169.195312 211.15625 168.804688 C 211.027344 168.6875 208.421875 166.292969 206.464844 163.15625 C 205.601562 161.773438 204.863281 160.242188 204.527344 158.703125 C 204.507812 158.617188 204.433594 158.558594 204.351562 158.554688 C 204.265625 158.554688 204.1875 158.609375 204.167969 158.691406 C 204.167969 158.691406 203.59375 160.78125 202.886719 162.574219 C 202.480469 163.605469 202.042969 164.539062 201.636719 164.898438 C 201.589844 164.9375 201.566406 165.003906 201.578125 165.066406 C 201.578125 165.066406 201.960938 167.453125 201.957031 169.78125 C 201.957031 170.917969 201.863281 172.042969 201.585938 172.863281 C 201.574219 172.898438 201.570312 172.941406 201.585938 172.976562 C 201.585938 172.976562 202.03125 174.378906 202.804688 175.417969 C 203.21875 175.976562 203.730469 176.429688 204.308594 176.550781 C 204.308594 176.550781 204.3125 176.550781 204.316406 176.550781 C 204.316406 176.550781 206.277344 176.875 209.097656 176.992188 C 210.527344 177.054688 212.175781 177.0625 213.898438 176.949219 C 213.984375 176.945312 214.054688 176.882812 214.070312 176.800781 C 214.070312 176.800781 214.121094 176.53125 214.261719 176.292969 C 214.339844 176.164062 214.445312 176.035156 214.597656 176.003906 C 214.808594 175.957031 215.078125 176.085938 215.449219 176.492188 C 215.453125 176.496094 215.453125 176.496094 215.457031 176.5 C 215.457031 176.5 217.417969 178.445312 217.765625 179.621094 C 217.828125 179.820312 217.84375 179.992188 217.75 180.105469 C 217.632812 180.253906 217.375 180.292969 216.945312 180.25 C 216.867188 180.242188 216.792969 180.285156 216.757812 180.355469 C 216.726562 180.425781 216.738281 180.507812 216.792969 180.5625 C 216.792969 180.5625 217.261719 181.050781 217.328125 181.597656 C 217.367188 181.90625 217.257812 182.230469 216.828125 182.484375 C 216.808594 182.5 216.789062 182.515625 216.777344 182.535156 C 216.777344 182.535156 214.976562 185.011719 213.390625 186.386719 C 212.945312 186.773438 212.519531 187.074219 212.15625 187.195312 C 211.964844 187.257812 211.796875 187.273438 211.660156 187.199219 C 211.578125 187.152344 211.46875 187.175781 211.417969 187.257812 C 211.363281 187.335938 211.378906 187.445312 211.453125 187.503906 L 228.199219 201.023438 C 228.207031 201.027344 228.214844 201.035156 228.222656 201.039062 C 228.222656 201.039062 229.699219 201.894531 229.726562 204.578125 C 229.746094 206.007812 229.355469 207.9375 228.148438 210.507812 C 228.109375 210.585938 227.738281 211.300781 227.707031 212.753906 C 227.6875 213.597656 227.78125 214.699219 228.128906 216.078125 C 228.136719 216.28125 228.191406 218.109375 227.9375 220.53125 C 227.800781 221.875 227.566406 223.40625 227.175781 224.941406 C 227.152344 225.039062 227.207031 225.136719 227.304688 225.164062 C 227.398438 225.191406 227.5 225.140625 227.53125 225.046875 Z M 247.371094 163.867188 L 228.117188 222.097656 C 228.195312 221.570312 228.257812 221.058594 228.308594 220.570312 C 228.578125 217.96875 228.5 216.042969 228.5 216.042969 C 228.5 216.03125 228.496094 216.019531 228.496094 216.003906 C 228.152344 214.660156 228.058594 213.585938 228.074219 212.761719 C 228.109375 211.34375 228.476562 210.6875 228.476562 210.6875 C 228.476562 210.679688 228.480469 210.675781 228.484375 210.671875 C 229.722656 208.027344 230.117188 206.042969 230.097656 204.574219 C 230.066406 201.796875 228.582031 200.824219 228.421875 200.726562 C 228.421875 200.726562 212.140625 187.585938 212.140625 187.585938 C 212.1875 187.574219 212.230469 187.5625 212.277344 187.546875 C 212.671875 187.414062 213.144531 187.089844 213.632812 186.667969 C 215.144531 185.355469 216.84375 183.070312 217.054688 182.785156 C 217.484375 182.511719 217.660156 182.183594 217.699219 181.855469 C 217.75 181.394531 217.511719 180.929688 217.308594 180.632812 C 217.679688 180.613281 217.910156 180.5 218.039062 180.339844 C 218.199219 180.140625 218.222656 179.855469 218.121094 179.515625 C 217.765625 178.308594 215.796875 176.320312 215.71875 176.238281 C 215.210938 175.683594 214.808594 175.578125 214.515625 175.640625 C 214.265625 175.695312 214.074219 175.886719 213.945312 176.105469 C 213.839844 176.277344 213.777344 176.464844 213.742188 176.589844 C 212.082031 176.691406 210.492188 176.679688 209.113281 176.621094 C 206.402344 176.507812 204.488281 176.203125 204.378906 176.1875 C 203.882812 176.082031 203.457031 175.675781 203.101562 175.199219 C 202.453125 174.324219 202.046875 173.1875 201.957031 172.921875 C 202.230469 172.078125 202.328125 170.9375 202.328125 169.78125 C 202.332031 167.699219 202.03125 165.574219 201.957031 165.101562 C 202.285156 164.769531 202.636719 164.121094 202.96875 163.351562 C 203.539062 162.027344 204.0625 160.355469 204.332031 159.449219 C 204.722656 160.800781 205.386719 162.132812 206.148438 163.355469 C 208.183594 166.613281 210.914062 169.082031 210.914062 169.082031 C 210.917969 169.085938 210.921875 169.089844 210.921875 169.09375 C 211.46875 169.519531 212.386719 169.746094 213.570312 169.800781 C 215.214844 169.875 217.390625 169.628906 219.789062 169.195312 C 228.363281 167.640625 239.792969 163.6875 239.792969 163.6875 C 239.800781 163.683594 239.808594 163.679688 239.816406 163.675781 C 240.863281 163.128906 241.710938 162.8125 242.375 162.632812 C 243.347656 162.367188 243.902344 162.402344 244.070312 162.425781 C 244.394531 162.808594 244.847656 163.097656 245.324219 163.3125 C 246.113281 163.667969 246.96875 163.816406 247.371094 163.867188 Z M 247.371094 163.867188 " fill-opacity="1" fill-rule="evenodd"/></g></svg>